<svg xmlns="http://www.w3.org/2000/svg" version="1.1" xmlns:xlink="http://www.w3.org/1999/xlink" xmlns:svgjs="http://svgjs.dev/svgjs" width="1440" height="2060" preserveAspectRatio="none" viewBox="0 0 1440 2060"><g mask="url(&quot;#SvgjsMask1060&quot;)" fill="none"><rect width="1440" height="2060" x="0" y="0" fill="rgba(24, 106, 59, 1)"></rect><path d="M0,531.45C123.793,536.333,256.64,628.405,362.655,564.302C468.315,500.413,447.442,340.058,500.732,228.676C555.363,114.491,689.391,28.504,679.379,-97.68C669.378,-223.718,549.254,-311.027,451.542,-391.263C365.681,-461.767,261.704,-496.941,155.092,-528.196C48.523,-559.438,-60.256,-598.905,-168.237,-572.961C-278.641,-546.435,-365.297,-466.612,-443.573,-384.359C-524.949,-298.848,-594.49,-203.537,-627.617,-90.238C-664.234,35,-695.315,174.097,-641.627,293.021C-587.884,412.067,-467.157,490.901,-344.722,536.398C-234.773,577.255,-117.204,526.827,0,531.45" fill="#13522d"></path><path d="M1440 2961.799C1612.351 2975.233 1774.305 2898.661 1927.521 2818.598 2093.256 2731.993 2310.852 2660.742 2360.922 2480.571 2411.907 2297.108 2239.9030000000002 2131.488 2167.402 1955.415 2113.964 1825.637 2076.999 1693.461 1991.1100000000001 1582.46 1901.2350000000001 1466.308 1793.016 1369.779 1662.359 1302.7150000000001 1509.651 1224.3319999999999 1345.005 1128.9850000000001 1177.099 1164.6399999999999 1006.7850000000001 1200.806 901.872 1363.578 781.833 1489.6950000000002 655.862 1622.045 494.375 1739.688 459.124 1918.971 423.39 2100.714 492.48 2291.375 593.708 2446.489 687.436 2590.111 852.509 2657.0299999999997 998.991 2746.223 1141.637 2833.08 1273.496 2948.821 1440 2961.799" fill="#1e8249"></path></g><defs><mask id="SvgjsMask1060"><rect width="1440" height="2060" fill="#ffffff"></rect></mask></defs></svg>